<svg width="20" height="20" xmlns="http://www.w3.org/2000/svg" version="1.1"> <g> <g id="svg_1">    <g data-name="图层_1" id="_图层_1">     <g data-name="_图层_1" id="_图层_1-2">      <path id="svg_2" fill="#fdd52b" fill-opacity="0" d="m-5.1,-2.8l26.4,0l0,26.4l-26.4,0l0,-26.4z" class="cls-1"/>      <path id="svg_3" fill="#fdd52b" d="m5.3,4.7c0.3,0 0.6,0 0.8,0.4c0,0 0.2,0.2 0.3,0.3l0,0l4,11.4c0.1,0.4 -0.1,0.8 -0.5,0.9s-0.8,0 -1,-0.4l0,0l-1,-3l-5.2,0l-1,2.9c-0.1,0.4 -0.6,0.5 -1,0.4c-0.4,-0.1 -0.6,-0.5 -0.5,-0.9l0,0l4,-11.4c0,-0.2 0.3,-0.4 0.5,-0.4c0.2,-0.2 0.4,-0.3 0.7,-0.3l0,0l-0.1,0.1zm7.4,3.2c0.4,0 0.8,0.2 0.8,0.5l0,8.8c0,0.3 -0.4,0.5 -0.8,0.5s-0.8,-0.2 -0.8,-0.5l0,0l0,-8.8c0,-0.3 0.4,-0.5 0.8,-0.5zm-7.4,-0.9l-2,5.8l4.1,0l-2,-5.8l0,0l-0.1,0zm11.4,-4.3l0,0l0.8,2.4l2.4,0.8l0,0l-2.4,0.7l-0.7,2.3l0,0l-0.8,-2.4l-2.3,-0.7l0,0l2.3,-0.8l0.7,-2.3l0,0zm-4.3,-1.5l0,0l0.5,1.5l1.5,0.5l0,0l-1.5,0.4l-0.5,1.5l0,0l-0.5,-1.5l-1.5,-0.4l0,0l1.5,-0.5l0.5,-1.5l0,0z" class="cls-2"/>     </g>    </g>   </g>  </g> </svg>