<?xml version="1.0" encoding="UTF-8"?>
<svg xmlns="http://www.w3.org/2000/svg" version="1.1" viewBox="0 0 20 20">
  <defs>
    <style>
      .cls-1 {
        fill: #0e9cfe;
      }
    </style>
  </defs>
  <!-- Generator: Adobe Illustrator 28.6.0, SVG Export Plug-In . SVG Version: 1.2.0 Build 709)  -->
  <g>
    <g id="_图层_1" data-name="图层_1">
      <path class="cls-1" d="M15,7.7l-6.5,6.5c-1,1-2.7,1-3.7,0-1-1-1-2.6,0-3.7l7.7-7.7c1.7-1.6,4.4-1.6,6,.1,1.6,1.6,1.6,4.3,0,5.9l-8.3,8.2c-2.3,2.3-6.1,2.3-8.3,0C-.3,14.8-.3,11,2,8.8L9,1.7c0,0,.1-.1.2-.2h0c.3-.4.7-.4,1,0s.3.7,0,1c-.1,0-.2.2-.3.3l-7,7.1c-1.7,1.7-1.7,4.5,0,6.3,0,0,0,0,0,0,1.7,1.7,4.5,1.7,6.3,0,0,0,0,0,0,0l7-7,.3-.3.9-.9c1.1-1.1,1.1-2.8,0-3.9-1.1-1.1-2.8-1.1-3.9,0l-7.7,7.7c-.4.4-.4,1.1,0,1.5.4.4,1.1.4,1.5,0l6.5-6.5c.3-.3.7-.3,1,0,.3.3.3.8,0,1.1Z"/>
    </g>
  </g>
</svg>