<?xml version="1.0" encoding="UTF-8"?>
<!DOCTYPE svg PUBLIC "-//W3C//DTD SVG 1.1//EN" "http://www.w3.org/Graphics/SVG/1.1/DTD/svg11.dtd">
<svg xmlns="http://www.w3.org/2000/svg" version="1.1" width="94px" height="94px" style="shape-rendering:geometricPrecision; text-rendering:geometricPrecision; image-rendering:optimizeQuality; fill-rule:evenodd; clip-rule:evenodd" xmlns:xlink="http://www.w3.org/1999/xlink">
<g><path style="opacity:0.982" fill="#fe0350" d="M 51.5,15.5 C 59.6923,32.0512 68.0257,48.5512 76.5,65C 69.654,65.1717 62.9874,65.6717 56.5,66.5C 56.5,66.8333 56.5,67.1667 56.5,67.5C 41.5,67.5 26.5,67.5 11.5,67.5C 9.73535,66.5386 7.73535,66.2053 5.5,66.5C 5.5,46.1667 5.5,25.8333 5.5,5.5C 19.5159,5.16742 33.5159,5.50075 47.5,6.5C 49.12,9.40373 50.4533,12.4037 51.5,15.5 Z"/></g>
<g><path style="opacity:1" fill="#ffc947" d="M 27.5,11.5 C 28.675,11.281 29.675,11.6143 30.5,12.5C 28.9483,13.7979 27.9483,13.4646 27.5,11.5 Z"/></g>
<g><path style="opacity:0.946" fill="#df004b" d="M 51.5,15.5 C 58.5,15.5 65.5,15.5 72.5,15.5C 77.514,36.2546 82.514,56.9213 87.5,77.5C 80.3134,77.8245 73.3134,77.4912 66.5,76.5C 69.9641,73.5375 73.2975,70.3709 76.5,67C 69.8417,66.5004 63.175,66.3337 56.5,66.5C 62.9874,65.6717 69.654,65.1717 76.5,65C 68.0257,48.5512 59.6923,32.0512 51.5,15.5 Z"/></g>
<g><path style="opacity:1" fill="#ffc947" d="M 32.5,16.5 C 33.675,16.281 34.675,16.6143 35.5,17.5C 33.9483,18.7979 32.9483,18.4646 32.5,16.5 Z"/></g>
<g><path style="opacity:1" fill="#ffe446" d="M 18.5,14.5 C 19.2485,15.531 19.9152,16.6976 20.5,18C 26.1511,17.9786 26.6511,19.1453 22,21.5C 21.8047,23.2072 21.8047,24.8739 22,26.5C 21.2613,25.4258 20.2613,24.7591 19,24.5C 14.5605,27.5413 13.7272,26.8746 16.5,22.5C 15.0186,21.5197 13.6853,20.353 12.5,19C 15.8427,19.0595 17.8427,17.5595 18.5,14.5 Z"/></g>
<g><path style="opacity:1" fill="#ffe045" d="M 33.5,23.5 C 35.7602,24.2376 35.9269,25.2376 34,26.5C 32.2716,25.6477 32.105,24.6477 33.5,23.5 Z"/></g>
<g><path style="opacity:1" fill="#ffe345" d="M 28.5,28.5 C 30.7602,29.2376 30.9269,30.2376 29,31.5C 27.2716,30.6477 27.105,29.6477 28.5,28.5 Z"/></g>
<g><path style="opacity:0.914" fill="#01112f" d="M 5.5,66.5 C 7.73535,66.2053 9.73535,66.5386 11.5,67.5C 11.5,74.1667 11.5,80.8333 11.5,87.5C 9.5,87.5 7.5,87.5 5.5,87.5C 5.5,80.5 5.5,73.5 5.5,66.5 Z"/></g>
<g><path style="opacity:0.933" fill="#05112f" d="M 56.5,67.5 C 56.5,67.1667 56.5,66.8333 56.5,66.5C 63.175,66.3337 69.8417,66.5004 76.5,67C 73.2975,70.3709 69.9641,73.5375 66.5,76.5C 63.1667,73.5 59.8333,70.5 56.5,67.5 Z"/></g>
</svg>
