<svg width="20" height="20" xmlns="http://www.w3.org/2000/svg" xml:space="preserve" version="1.1">       <g>       <title></title>       <path id="svg_1" fill="#1BED0E" d="m17.8,4.3l-11.2,0c-0.5,0 -0.9,-0.4 -0.9,-0.9s0.4,-0.9 0.9,-0.9l11.2,0c0.5,0 0.9,0.4 0.9,0.9c0,0.4 -0.4,0.9 -0.9,0.9zm0,6.6l-11.2,0c-0.5,0 -0.9,-0.4 -0.9,-0.9s0.4,-1 0.9,-1l11.2,0c0.5,0 0.9,0.4 0.9,0.9c0,0.6 -0.4,1 -0.9,1zm0,6.7l-11.2,0c-0.5,0 -0.9,-0.4 -0.9,-0.9c0,-0.5 0.4,-0.9 0.9,-0.9l11.2,0c0.5,0 0.9,0.4 0.9,0.9c0,0.4 -0.4,0.9 -0.9,0.9z" class="st0"/>       <path id="svg_2" fill="#1BED0E" d="m1.3,3.3c0,0.5 0.4,1 1,1s1,-0.4 1,-1c0,0 0,0 0,0c0,-0.5 -0.4,-1 -1,-1s-1,0.5 -1,1c0,0 0,0 0,0z" class="st0"/>       <path id="svg_3" fill="#1BED0E" d="m1.3,10c0,0.5 0.4,1 1,1c0.5,0 1,-0.4 1,-1c0,0 0,0 0,0c0,-0.5 -0.4,-1 -1,-1s-1,0.5 -1,1c0,0 0,0 0,0z" class="st0"/>       <path id="svg_4" fill="#1BED0E" d="m1.3,16.7c0,0.5 0.4,1 1,1s1,-0.4 1,-1c0,0 0,0 0,0c0,-0.5 -0.4,-1 -1,-1s-1,0.4 -1,1c0,0 0,0 0,0z" class="st0"/>      </g>     </svg>