<svg width="20" height="20" xmlns="http://www.w3.org/2000/svg" xml:space="preserve" version="1.1">       <g>       <title></title>       <path id="svg_1" fill="#808080" d="m0.7,13.3c0,-4.2 2.2,-8.1 5.8,-10.3c0.6,-0.5 1.4,-0.4 1.9,0.2c0.5,0.6 0.4,1.4 -0.2,1.9c-0.1,0.1 -0.2,0.1 -0.3,0.2c-1.6,0.9 -2.9,2.3 -3.7,4l0.4,0c2.2,0 4,1.8 4,4s-1.8,4 -4,4s-4,-1.8 -3.9,-4l0,0zm10.7,0c0,-4.2 2.2,-8.1 5.8,-10.3c0.6,-0.5 1.4,-0.4 1.9,0.2c0.5,0.6 0.4,1.4 -0.2,1.9c-0.1,0.1 -0.2,0.1 -0.3,0.2c-1.6,0.9 -2.9,2.3 -3.6,4l0.4,0c2.2,0 4,1.8 4,4s-1.8,4 -4,4s-4.1,-1.8 -4,-4l0,0z" class="st0"/>      </g>     </svg>