<?xml version="1.0" encoding="UTF-8"?>
<svg xmlns="http://www.w3.org/2000/svg" version="1.1" viewBox="0 0 20 20">
  <defs>
    <style>
      .cls-1 {
        fill: #fff;
      }

      .cls-2 {
        fill: #fcb425;
      }
    </style>
  </defs>
  <!-- Generator: Adobe Illustrator 28.6.0, SVG Export Plug-In . SVG Version: 1.2.0 Build 709)  -->
  <g>
    <g id="_图层_1" data-name="图层_1">
      <g>
        <path class="cls-2" d="M.1,10c0,5.4,4.4,9.9,9.9,9.9s9.9-4.4,9.9-9.9c0-5.4-4.4-9.9-9.9-9.9S.1,4.6.1,10c0,0,0,0,0,0Z"/>
        <path class="cls-1" d="M15,5.1c0,.6.5,1.1,1.1,1.1s1.1-.5,1.1-1.1h0c0-.6-.5-1.1-1.1-1.1s-1.1.5-1.1,1.1h0Z"/>
        <path class="cls-1" d="M15.2,7.3h2v5.7h-2v-5.7ZM11.3,7c-1.8,0-3.3,1.4-3.3,3.1s1.5,3.1,3.3,3.1,3.3-1.4,3.3-3.1-1.5-3.1-3.3-3.1ZM11.3,11.5c-.7,0-1.4-.6-1.4-1.4s.6-1.4,1.4-1.4,1.4.6,1.4,1.4-.6,1.4-1.4,1.4Z"/>
        <path d="M5.9,4h1.9v9h-1.9V4Z"/>
        <path d="M3.9,7.1c-1.5,0-2.6,1.3-2.6,3s1.2,3,2.6,3,2.6-1.3,2.6-3-1.2-3-2.6-3ZM4.6,11.6c-.8,0-1.4-.7-1.4-1.6s.6-1.6,1.4-1.6,1.4.7,1.4,1.6-.6,1.6-1.4,1.6Z"/>
      </g>
    </g>
  </g>
</svg>