<svg width="20" height="20" xmlns="http://www.w3.org/2000/svg" xml:space="preserve" version="1.1">   <g>   <title>前往收藏分类</title>   <path id="svg_1" fill="#5398DF" d="m19.5,5.1l0,8.8c0,0.6 -0.6,1.2 -1.3,1.2l-13,0c-0.8,0 -1.4,-0.8 -1.2,-1.5l2.1,-6.1l-5,0c-0.6,0 -1.1,-0.5 -1.1,-1.1l0,-3.1c0,-0.6 0.5,-1 1.1,-1l6.2,0c0.4,0 0.8,0.2 1,0.6l0.7,1.1l9.3,0c0.6,0 1.2,0.5 1.2,1.1" class="st0"/>   <path id="svg_2" fill="#85BCFF" d="m18.4,17.9l-17.3,0c-0.6,0 -1.1,-0.5 -1.1,-1.1l0,-10.6c0,-0.6 0.5,-1.1 1.1,-1.1l17.3,0c0.6,0 1.1,0.5 1.1,1.1l0,0l0,10.6c0,0.6 -0.5,1.1 -1.1,1.1" class="st1"/>  </g> </svg>