<?xml version="1.0" encoding="UTF-8"?>
<svg xmlns="http://www.w3.org/2000/svg" version="1.1" viewBox="0 0 20 20">
  <defs>
    <style>
      .cls-1 {
        fill: #fff370;
      }

      .cls-2 {
        fill: #9adccf;
      }

      .cls-3 {
        fill: #4f3d3b;
      }
    </style>
  </defs>
  <!-- Generator: Adobe Illustrator 28.6.0, SVG Export Plug-In . SVG Version: 1.2.0 Build 709)  -->
  <g>
    <g id="_图层_1" data-name="图层_1">
      <g>
        <path class="cls-2" d="M7.2,9.4c0-1.2.9-2.1,2.1-2.1h1.9V3.2c0-.2-.2-.4-.4-.4H1.8c-.2,0-.4.2-.4.4v6.2c0,.2.2.4.4.4h1.6v.7l1.4-.7h2.3s0-.4,0-.4Z"/>
        <path class="cls-1" d="M15.2,15.9h-5.9c-.2,0-.4-.2-.4-.4v-6.2c0-.2.2-.4.4-.4h8.9c.2,0,.4.2.4.4v6.2c0,.2-.2.4-.4.4h-1.6v.7l-1.4-.7Z"/>
        <path class="cls-3" d="M6.3,10.2h-1.2c0,0-.1,0-.2,0l-1.9,1v-.6c0-.2-.2-.4-.4-.4h-.7c-.5,0-.9-.4-.9-.9V3.2c0-.5.4-.9.9-.9h8.9c.5,0,.9.4.9.9v3.2c0,.2.2.4.4.4s.4-.2.4-.4v-3.2c0-.9-.7-1.6-1.6-1.6H1.8C.9,1.6.2,2.3.2,3.2v6.2c0,.9.7,1.6,1.6,1.6h.4v.9c0,.1,0,.2.2.3,0,0,.1,0,.2,0s.1,0,.2,0l2.4-1.2h1.2c.2,0,.4-.2.4-.4s-.2-.4-.4-.4Z"/>
        <path class="cls-3" d="M18.2,7.8h-1.4c-.2,0-.4.2-.4.4s.2.4.4.4h1.4c.5,0,.9.4.9.9v6.2c0,.5-.4.9-.9.9h-.7c-.2,0-.4.2-.4.4v.6l-1.9-1c0,0-.1,0-.2,0h-5.7c-.5,0-.9-.4-.9-.9v-6.2c0-.5.4-.9.9-.9h5.5c.2,0,.4-.2.4-.4s-.2-.4-.4-.4h-5.5c-.3,0-.5,0-.8.2l-1.9-4c0-.1-.2-.2-.3-.2s-.3,0-.3.2l-2,4.2c0,.2,0,.4.2.5.2,0,.4,0,.5-.2l.4-.9h2.4l.4.9c-.2.3-.3.6-.3.9v6.2c0,.9.7,1.6,1.6,1.6h5.6l2.4,1.2c0,0,.1,0,.2,0s.1,0,.2,0c.1,0,.2-.2.2-.3v-.9h.4c.9,0,1.6-.7,1.6-1.6v-6.2c0-.9-.7-1.6-1.6-1.6ZM5.4,6.9l.9-1.9.9,1.9s-1.7,0-1.7,0ZM6.6,14.9s0,0,0,0c0,0,0,0,0,0,0,0,0,0,0,0,0,0,0,0-.1-.1,0,0,0,0,0,0,0,0,0,0,0,0,0,0,0,0,0,0,0,0,0,0,0,0,0,0,0,0,0,0h-2.2c-.5,0-.9-.4-.9-.9v-.4c0-.2-.2-.4-.4-.4s-.4.2-.4.4v.4c0,.9.7,1.6,1.6,1.6h1.3l-.4.4c-.1.1-.1.4,0,.5,0,0,.2.1.3.1s.2,0,.3-.1l1-1s0,0,0,0c0,0,0,0,0,0,0,0,0,0,0,0,0,0,0,0,0,0,0,0,0,0,0,0,0,0,0,0,0-.1,0,0,0,0,0,0ZM13.4,3.7s0,0,0,0c0,0,0,0,0,0,0,0,0,0,0,0,0,0,0,0,.1.1,0,0,0,0,0,0,0,0,0,0,0,0,0,0,0,0,0,0,0,0,0,0,0,0,0,0,0,0,0,0h2.2c.5,0,.9.4.9.9v1.6c0,.2.2.4.4.4s.4-.2.4-.4v-1.6c0-.9-.7-1.6-1.6-1.6h-1.3l.4-.4c.1-.1.1-.4,0-.5s-.4-.1-.5,0l-1,1s0,0,0,0c0,0,0,0,0,0,0,0,0,0,0,0,0,0,0,0,0,0,0,0,0,0,0,0,0,0,0,0,0,.1,0,0,0,0,0,0Z"/>
        <path class="cls-3" d="M13.7,15.2c.2,0,.4-.2.4-.4v-1h1.7c.2,0,.4-.2.4-.4v-2c0-.2-.2-.4-.4-.4h-1.7v-1c0-.2-.2-.4-.4-.4s-.4.2-.4.4v1h-1.7c-.2,0-.4.2-.4.4v2c0,.2.2.4.4.4h1.7v1c0,.2.2.4.4.4ZM14.1,11.9h1.4v1.2h-1.4v-1.2ZM12,13.1v-1.2h1.4v1.2h-1.4Z"/>
      </g>
    </g>
  </g>
</svg>