<?xml version="1.0" encoding="UTF-8"?>
<svg xmlns="http://www.w3.org/2000/svg" version="1.1" viewBox="0 0 20 20">
  <defs>
    <style>
      .cls-1 {
        fill: #ff7944;
      }
    </style>
  </defs>
  <!-- Generator: Adobe Illustrator 28.6.0, SVG Export Plug-In . SVG Version: 1.2.0 Build 709)  -->
  <g>
    <g id="_图层_1" data-name="图层_1">
      <path class="cls-1" d="M4.3,8.9c.3-.3.8-.3,1.1,0,.3.3.3.7,0,1.1h0c0,0-2.6,2.7-2.6,2.7-1.3,1.3-1.3,3.3,0,4.6,1.2,1.2,3.2,1.3,4.5.1h.1c0-.1,3.4-3.6,3.4-3.6,1.3-1.3,1.3-3.3,0-4.6-.1-.1-.3-.3-.4-.4-.4-.3-.4-.8-.2-1.1.3-.4.8-.4,1.1-.2,2.2,1.5,2.7,4.6,1.2,6.8-.1.2-.2.3-.4.5l-.2.2-3.4,3.4c-1.9,1.9-5,1.9-6.9,0-1.8-1.8-1.9-4.8-.2-6.7l.2-.2,2.6-2.6h0Z"/>
      <path class="cls-1" d="M15.7,11.1c-.3.3-.8.3-1.1,0-.3-.3-.3-.7,0-1.1h0c0,0,2.6-2.7,2.6-2.7,1.3-1.3,1.3-3.3,0-4.6-1.2-1.2-3.2-1.3-4.5-.1h-.1c0,.1-3.4,3.6-3.4,3.6-1.3,1.3-1.3,3.3,0,4.6.1.1.3.3.4.4.4.3.5.8.2,1.1s-.8.5-1.1.2c0,0,0,0,0,0-2.2-1.5-2.7-4.6-1.2-6.8.1-.2.2-.3.4-.5l.2-.2,3.4-3.4c1.9-1.9,5-1.9,6.9,0,1.8,1.8,1.9,4.8.2,6.7l-.2.2-2.6,2.6h0Z"/>
    </g>
  </g>
</svg>