<?xml version="1.0" encoding="UTF-8"?>
<svg xmlns="http://www.w3.org/2000/svg" version="1.1" viewBox="0 0 20 20">
  <defs>
    <style>
      .cls-1 {
        fill: #7c3aed;
      }
    </style>
  </defs>
  <!-- Generator: Adobe Illustrator 28.6.0, SVG Export Plug-In . SVG Version: 1.2.0 Build 709)  -->
  <g>
    <g id="_图层_1" data-name="图层_1">
      <path class="cls-1" d="M16.1,15.5c.5-.8,1.1-1.6,1.5-2.5.1-.2.1-.5,0-.7-.4-.6-1.3-1.7-1.7-2.8-.5-1.1-.5-2.8-.5-3.6,0-.3-.1-.6-.3-.9l-2.7-3.4c0,.2,0,.3,0,.5,0,.4-.3.8-.4,1.2-.1.2-.2.5-.4.8l-.3.5c-.4.9-.8,1.9-.9,3-.1,1,0,2.3.7,3.7.1,0,.2,0,.3,0,1,.1,2,.6,2.8,1.3.8.7,1.5,1.6,2,2.9h0ZM6.8,18.8c0,0,.1,0,.2,0,.6,0,1.7,0,2.6.2.7.1,2.2.5,3.3.9.9.3,1.8-.5,2-1.4,0-.7.3-1.4.6-2.1h0c-.6-1.6-1.3-2.6-2-3.2-.7-.6-1.5-.9-2.3-1-1.3-.2-2.5.2-3.2.4.4,1.8.3,4-1.2,6.3h0ZM4.6,8.3c0,0,0,.2,0,.2l-2.2,4.9c-.2.5-.1,1.1.3,1.5l3.4,3.5c1.8-2.6,1.5-5,.7-6.9-.6-1.4-1.5-2.6-2.1-3.2h0ZM7.8,11.7c.5-.2,1.3-.4,2.3-.4-.6-1.4-.7-2.7-.6-3.8.1-1.3.6-2.4,1-3.3,0-.2.2-.4.3-.6.1-.2.2-.5.3-.7.2-.4.3-.7.4-1.1,0-.3,0-.6,0-.9,0-.3-.2-.6-.6-.9-.4-.1-.9,0-1.2.3l-4.1,3.7c-.2.2-.4.5-.4.8l-.4,2.4c.6.5,1.9,1.9,2.8,3.9,0,.2.1.4.2.5Z"/>
    </g>
  </g>
</svg>