<?xml version="1.0" encoding="UTF-8"?>
<svg id="_图层_1" xmlns="http://www.w3.org/2000/svg" version="1.1" viewBox="0 0 20 20">
  <!-- Generator: Adobe Illustrator 29.8.1, SVG Export Plug-In . SVG Version: 2.1.1 Build 2)  -->
  <defs>
    <style>
      .st0 {
        fill: #0281ff;
      }
    </style>
  </defs>
  <path class="st0" d="M3.66,4.14h12.52c.32,0,.59-.24.59-.55s-.26-.55-.59-.55H3.66c-.21,0-.4.1-.51.27s-.1.39,0,.55.29.27.51.27h0ZM5.6,2.12h8.6c.32,0,.59-.24.59-.55s-.26-.55-.59-.55H5.6c-.21,0-.4.1-.51.27-.1.17-.1.39,0,.55s.29.27.51.27h0ZM17.73,5.24H2.28c-1.08,0-1.96.83-1.96,1.83v10.09c0,1.02.87,1.83,1.96,1.83h15.46c1.08,0,1.96-.83,1.96-1.83V7.07c0-1.02-.87-1.83-1.96-1.83ZM18.51,16.95c0,.51-.44.92-.98.92H2.48c-.54,0-.98-.41-.98-.92V7.44c0-.24.09-.48.28-.65.19-.18.43-.27.69-.27h15.06c.54,0,.98.41.98.92,0,0,0,9.51,0,9.51Z"/>
  <g>
    <path id="svg_1" class="st0" d="M13.55,13.12c-2.47,0-4.49-2.01-4.49-4.49,0,2.47-2,4.49-4.49,4.49,2.47.02,4.48,2.01,4.49,4.49,0-3.13,2.03-4.49,4.49-4.49Z"/>
    <path id="svg_2" class="st0" d="M15.4,9.16c-1.65,0-2.38-.7-2.38-2.38,0,1.67-.71,2.38-2.38,2.38,1.65,0,2.38.71,2.38,2.38,0-1.65.71-2.38,2.38-2.38h0Z"/>
  </g>
</svg>