<?xml version="1.0" encoding="UTF-8"?>
<svg xmlns="http://www.w3.org/2000/svg" version="1.1" viewBox="0 0 20 20">
  <defs>
    <style>
      .cls-1 {
        fill: #6c6c6c;
      }
    </style>
  </defs>
  <!-- Generator: Adobe Illustrator 28.6.0, SVG Export Plug-In . SVG Version: 1.2.0 Build 709)  -->
  <g>
    <g id="_图层_1" data-name="图层_1">
      <g>
        <path class="cls-1" d="M2,17.3c0,0,.1,0,.2,0,0,0,4-1.3,4.6-1.5,0,0,.2,0,.2-.1.4-.4,10-9.9,10.6-10.5.7-.7,1-1.4,1-2.1,0-.7-.4-1.4-1-2-.6-.6-1.2-.8-1.9-.8-1.1,0-1.9.7-2.1.9L3,11.6c0,0-.1.2-.1.2-.2.9-1.4,4.7-1.4,4.7,0,.2,0,.4.1.6.1.1.2.2.4.2ZM14.4,1.8c0,0,.6-.6,1.3-.6s.8.2,1.1.5c.4.4.7.8.7,1.2,0,.4-.2.8-.7,1.3h0c-.2-.5-.5-1-1-1.4-.4-.4-.9-.8-1.5-1,0,0,0,0,0,0ZM13.5,2.7c.3,0,.9.3,1.5.9.7.7.8,1.4.9,1.6-2.1,2.1-6.8,6.8-8.7,8.6-.5-1.1-1.4-1.9-2.4-2.4,1.9-1.9,6.7-6.7,8.7-8.7ZM4,12.3c.3,0,.9.3,1.5.9.5.5.7,1,.8,1.3-.7.2-2.3.8-3.4,1.1.3-1,.8-2.5,1.1-3.3Z"/>
        <rect class="cls-1" x="1.4" y="18.3" width="17.1" height="1.5" rx=".7" ry=".7"/>
      </g>
    </g>
  </g>
</svg>