<?xml version="1.0" encoding="UTF-8"?>
<svg xmlns="http://www.w3.org/2000/svg" version="1.1" viewBox="0 0 20 20">
  <defs>
    <style>
      .cls-1 {
        fill: #060501;
      }

      .cls-1, .cls-2, .cls-3, .cls-4, .cls-5, .cls-6 {
        fill-rule: evenodd;
      }

      .cls-2 {
        fill: #010100;
        opacity: 1;
      }

      .cls-2, .cls-6 {
        isolation: isolate;
      }

      .cls-3 {
        fill: #f7b458;
      }

      .cls-4 {
        fill: #f3e54b;
      }

      .cls-5 {
        fill: #090802;
      }

      .cls-6 {
        fill: #020100;
        opacity: 1;
      }
    </style>
  </defs>
  <!-- Generator: Adobe Illustrator 28.6.0, SVG Export Plug-In . SVG Version: 1.2.0 Build 709)  -->
  <g>
    <g id="_图层_1" data-name="图层_1">
      <g>
        <path class="cls-6" d="M19.9,7.8v.7c0,.3-.2.6-.5.8-1.1,1.1-2.2,2.1-3.3,3.2-.1.2-.2.4-.2.6,0,.3,0,.6.1.9,0,.1,0,.3,0,.4,0,0-.1.1-.2.2-.2,0-.3,0-.4-.2,0-.3-.1-.6-.2-.9-.1-.5,0-1,.4-1.4,1.1-1.1,2.2-2.2,3.3-3.3.4-.7.2-1.3-.6-1.6-1.6-.2-3.2-.5-4.8-.7-.3-.1-.6-.4-.8-.7-.7-1.4-1.4-2.8-2.1-4.2,0,0,0-.1-.1-.2-.1-.2-.3-.3-.6-.3-.5,0-.8,0-1.1.5l-.6,1.2c-.1,0-.2,0-.4,0-.1,0-.2-.2-.1-.3.2-.4.4-.8.5-1.1.5-.7,1.2-1,2.1-.7.4.1.6.4.8.7.7,1.4,1.4,2.8,2.1,4.2.2.3.5.4.8.4,1.3.2,2.7.4,4,.6.8.1,1.3.5,1.6,1.3Z"/>
        <path class="cls-3" d="M10.8,1.4c-.2.1-.3.2-.4.4-.7,1.3-1.3,2.7-2,4-.3.5-.8.7-1.4.8-1.4.2-2.7.4-4.1.6-.8.3-1.1.8-1,1.6,0,.2.1.4.2.5,1.1,1.1,2.3,2.2,3.4,3.3.2.3.3.7.3,1-.2,1.4-.5,2.9-.7,4.3,0,.3,0,.6.1.9-.5.2-.9,0-1.2-.3-.2-.3-.3-.7-.2-1,.2-1.4.5-2.7.7-4.1.1-.5,0-1-.4-1.4-1.1-1.1-2.2-2.2-3.3-3.3-.4-.8-.1-1.3.7-1.6,1.5-.2,3-.4,4.5-.7.4-.1.8-.3,1-.7.3-.6.6-1.3,1-1.9,0-.2,0-.3-.1-.5,0-.2.2-.4.3-.5.1,0,.3,0,.4,0l.6-1.2c.3-.4.6-.6,1.1-.5.2,0,.4.1.6.3Z"/>
        <path class="cls-4" d="M10.8,1.4c0,0,0,0,.1.2.7,1.4,1.4,2.8,2.1,4.2.2.3.5.5.8.7,1.6.3,3.2.5,4.8.7.7.3.9.9.6,1.6-1.1,1.1-2.2,2.2-3.3,3.3-.4.4-.5.9-.4,1.4,0,.3.1.6.2.9,0,.2.2.2.4.2,0,.3,0,.5.1.8-.1,0-.2.2-.3.3.2.8.3,1.6.3,2.5-.3.6-.7.9-1.4.7-1.4-.7-2.8-1.5-4.2-2.2-.4-.1-.9-.1-1.3,0-1.3.7-2.7,1.4-4.1,2.1-.1-.3-.2-.5-.1-.9.2-1.4.5-2.9.7-4.3,0-.4,0-.7-.3-1-1.1-1.1-2.3-2.2-3.4-3.3-.1-.2-.2-.3-.2-.5-.1-.8.2-1.4,1-1.6,1.4-.2,2.7-.4,4.1-.6.6,0,1.1-.3,1.4-.8.7-1.3,1.3-2.7,2-4,.1-.2.2-.3.4-.4Z"/>
        <path class="cls-2" d="M7.9,3.3c.1.1.2.3.1.5-.3.6-.6,1.3-1,1.9-.2.4-.6.6-1,.7-1.5.2-3,.4-4.5.7-.8.3-1,.9-.7,1.6,1.1,1.1,2.2,2.2,3.3,3.3.4.4.5.9.4,1.4-.2,1.4-.5,2.7-.7,4.1,0,.4,0,.7.2,1,.3.4.7.5,1.2.3,1.4-.7,2.7-1.4,4.1-2.1.4-.2.8-.2,1.3,0,1.4.7,2.8,1.4,4.2,2.2.7.2,1.2,0,1.4-.7,0-.8-.1-1.7-.3-2.5,0-.2.1-.3.3-.3.2,0,.3,0,.3.2.1.7.2,1.4.3,2.1,0,.8-.3,1.4-1,1.8-.4.1-.8.1-1.2,0-1.3-.7-2.7-1.4-4-2.1-.3-.2-.7-.2-1,0-1.3.7-2.7,1.4-4,2.1-1,.3-1.7,0-2.2-.9,0-.2-.1-.4-.1-.7.2-1.5.5-3,.8-4.5,0-.4,0-.7-.3-1-1.2-1.1-2.3-2.2-3.4-3.4,0-.2-.2-.3-.2-.5v-.7c.2-.8.8-1.2,1.6-1.3,1.3-.2,2.7-.4,4-.6.4,0,.8-.2,1-.6.3-.6.6-1.2.9-1.8.1,0,.2-.1.4-.1Z"/>
        <path class="cls-5" d="M6.4,8.8c0,0,.2,0,.3,0,0,0,.1,0,.1.1,0,.3,0,.6,0,.9-.2.3-.4.3-.5,0,0-.3,0-.5,0-.8,0,0,0-.1.1-.2Z"/>
        <path class="cls-5" d="M13.3,8.8c.2,0,.3,0,.4.2,0,.3,0,.5,0,.8-.2.3-.3.3-.5,0,0-.3,0-.6,0-.9,0,0,0-.1.1-.2Z"/>
        <path class="cls-1" d="M9,9.4c0,0,.2,0,.2,0,.1.1.3.2.5.3.4,0,.7,0,1-.3.3,0,.4,0,.4.4-.5.5-1.1.7-1.8.3-.1,0-.3-.2-.4-.3,0-.2,0-.3.1-.4Z"/>
      </g>
    </g>
  </g>
</svg>