<?xml version="1.0" encoding="UTF-8"?>
<svg xmlns="http://www.w3.org/2000/svg" version="1.1" viewBox="0 0 20 20">
  <defs>
    <style>
      .cls-1 {
        fill: #2f77f0;
      }
    </style>
  </defs>
  <!-- Generator: Adobe Illustrator 28.6.0, SVG Export Plug-In . SVG Version: 1.2.0 Build 709)  -->
  <g>
    <g id="_图层_1" data-name="图层_1">
      <path class="cls-1" d="M3.7,5.1c-.8,0-1.5-.7-1.5-1.5s.7-1.5,1.5-1.5,1.5.7,1.5,1.5-.7,1.5-1.5,1.5M19.2,9.6L10.4.8c-.4-.4-.8-.6-1.4-.6H2.2C1.1.3.3,1.1.3,2.2v6.8c0,.5.2,1,.6,1.4l8.8,8.8c.4.4.8.6,1.4.6s1-.2,1.4-.6l6.8-6.8c.4-.4.6-.8.6-1.4s-.2-1-.6-1.4Z"/>
    </g>
  </g>
</svg>