<?xml version="1.0" encoding="UTF-8"?>
<svg xmlns="http://www.w3.org/2000/svg" version="1.1" viewBox="0 0 20 20">
  <defs>
    <style>
      .cls-1 {
        fill: #f3f2f8;
      }

      .cls-1, .cls-2, .cls-3, .cls-4, .cls-5, .cls-6, .cls-7 {
        fill-rule: evenodd;
      }

      .cls-2 {
        fill: #e3a511;
      }

      .cls-3 {
        fill: #3f373c;
      }

      .cls-4 {
        fill: #f7f5f8;
      }

      .cls-5 {
        fill: #2f77f0;
        isolation: isolate;
        opacity: 1;
      }

      .cls-6 {
        fill: #f4f2f8;
      }

      .cls-7 {
        fill: #e82fb4;
      }
    </style>
  </defs>
  <!-- Generator: Adobe Illustrator 28.6.0, SVG Export Plug-In . SVG Version: 1.2.0 Build 709)  -->
  <g>
    <g id="_图层_1" data-name="图层_1">
      <g>
        <path class="cls-3" d="M14.1,5.1c-.6-.5-1.1-1.1-1.7-1.7.2-.3.5-.5.7-.8.5-.3,1-.3,1.5,0,.5.5.6,1.1.1,1.7-.2.2-.5.5-.7.7Z"/>
        <path class="cls-2" d="M12.4,3.4c.5.6,1.1,1.1,1.7,1.7-.5.5-1,1-1.5,1.5-1.6,1.6-3.3,3.2-4.9,4.8,0,0,0,0,0,0-.5-.6-1.1-1.1-1.6-1.6,0,0,0,0,0,0,1-1,2.1-2.1,3.1-3.1,1.1-1.1,2.1-2.1,3.2-3.2Z"/>
        <path class="cls-5" d="M9.2,6.6c-1,1.1-2.1,2.1-3.1,3.1,0,0,0,0,0,0-.1.1-.2.3-.3.5-.3.7-.5,1.3-.8,2,0,0,.1.2.2.2.8-.3,1.5-.6,2.3-.9,0,0,.1,0,.2-.2,0,0,0,0,0,0,1.6-1.6,3.2-3.2,4.9-4.8,2,0,3.9,0,5.9,0,.7.2,1.2.7,1.4,1.4v8c-.2.8-.7,1.3-1.6,1.5-4.5,0-9.1,0-13.6,0-.4,0-.7-.2-1-.5-1.1-1.3-2.3-2.6-3.4-4-.5-1-.3-1.8.4-2.5,0-.2.2-.4.4-.5.8-.9,1.6-1.8,2.4-2.8.3-.3.7-.5,1.1-.6,1.5,0,3,0,4.4,0ZM2.6,11.1c.9,0,1.3.4,1.2,1.3-.2.6-.6.8-1.2.7-.6-.2-.8-.6-.7-1.2.1-.4.4-.6.7-.7Z"/>
        <path class="cls-7" d="M6,9.8c.6.5,1.1,1,1.6,1.6,0,0-.1.1-.2.2-.8.3-1.5.6-2.3.9,0,0-.2-.1-.2-.2.2-.7.5-1.3.8-2,0-.2.2-.3.3-.5Z"/>
        <path class="cls-6" d="M11.3,10c1.7,0,3.4,0,5.1,0,.2.2.3.3,0,.5-1.7,0-3.4,0-5.2,0-.3-.2-.3-.4,0-.6Z"/>
        <path class="cls-4" d="M11.2,11.8c1.8,0,3.5,0,5.3,0,.2.2.2.4,0,.5-1.7,0-3.5,0-5.2,0-.2-.2-.2-.4,0-.5Z"/>
        <path class="cls-1" d="M7.4,13.5c3,0,6,0,9,0,.2.2.2.4,0,.5-3,0-6,0-9,0-.3-.2-.3-.4,0-.6Z"/>
      </g>
    </g>
  </g>
</svg>