<svg width="20" height="20" xmlns="http://www.w3.org/2000/svg" xml:space="preserve" version="1.1">      <g>     <title></title>     <path id="svg_1" fill="#fc6100" d="m12.8,7.9l5.5,0c0.8,0 1.4,0.6 1.4,1.4l0,8.9c0,0.8 -0.6,1.4 -1.4,1.4l-9,0c-0.8,0 -1.4,-0.6 -1.4,-1.4l0,-5.5l2.8,0c1.1,0 2.1,-0.9 2.1,-2.1l0,-2.7zm-12.4,-6.2c0,-0.7 0.6,-1.3 1.4,-1.3l8.9,0c0.8,0 1.4,0.6 1.4,1.4l0,8.9c0,0.8 -0.6,1.4 -1.4,1.4l-8.9,0c-0.8,0 -1.4,-0.6 -1.4,-1.4l0,-9zm2.7,6l1,0l0,-0.5l1.4,0l0,2.5l1.1,0l0,-2.5l1.5,0l0,0.4l1.1,0l0,-3.4l-2.6,0l0,-0.7c0,-0.2 0,-0.4 0.1,-0.6c0,0 0,-0.1 0,-0.1c0,0 -0.1,0 -0.2,-0.1l-1,0l0,1.4l-2.4,0c0,0.1 0,3.6 0,3.6zm1,-2.6l1.4,0l0,1.3l-1.4,0l0,-1.3l0,0zm4,1.3l-1.5,0l0,-1.3l1.5,0l0,1.3l0,0zm4.4,10.4l0.4,-1.2l2.2,0l0.4,1.2l1.2,0l-1.9,-5.5l-1.4,0l-2,5.5l1.1,0l0,0zm0.7,-2l0.8,-2.3l0,0l0.7,2.3c0.1,0 -1.5,0 -1.5,0zm5,-8.9l-1.4,0c0,-1.5 -1.2,-2.7 -2.8,-2.7l0,-1.5c2.4,0 4.2,1.9 4.2,4.2zm-16.4,8.2l1.4,0c0,1.5 1.2,2.7 2.8,2.7l0,1.4c-2.4,0 -4.2,-1.8 -4.2,-4.1z" class="st0"/>     </g>     </svg>