<?xml version="1.0" encoding="UTF-8"?>
<svg xmlns="http://www.w3.org/2000/svg" version="1.1" viewBox="0 0 20 20">
  <defs>
    <style>
      .cls-1 {
        fill: #1f75aa;
      }

      .cls-2 {
        fill: #e4f0f7;
      }

      .cls-3 {
        fill: #a2cbeb;
      }
    </style>
  </defs>
  <!-- Generator: Adobe Illustrator 28.6.0, SVG Export Plug-In . SVG Version: 1.2.0 Build 709)  -->
  <g>
    <g id="_图层_1" data-name="图层_1">
      <g>
        <path class="cls-3" d="M15.4,19.1c0,0,0,.2-.2.2H4.8c0,0-.2,0-.2-.2v-1.1c0,0,0-.2.2-.2h10.5c0,0,.2,0,.2.2v1.1h0Z"/>
        <path class="cls-2" d="M18.1,1.3c0,0,0,.2-.2.2H2.1c0,0-.2,0-.2-.2v-.6c0,0,0-.2.2-.2h15.8c0,0,.2,0,.2.2v.6Z"/>
        <path class="cls-1" d="M17.7,1.6H2.3c-.3,0-.6-.3-.6-.6s.3-.6.6-.6h15.4c.3,0,.6.3.6.6s-.3.6-.6.6ZM2.3.8c-.1,0-.2.1-.2.2s.1.2.2.2h15.4c.1,0,.2-.1.2-.2s-.1-.2-.2-.2H2.3ZM15.5,18H4.5c-.1,0-.2,0-.2-.2s0-.2.2-.2h11c.1,0,.2,0,.2.2s0,.2-.2.2ZM15.7,15.9c0,0,0,0-.1,0L2.8,3s0-.2,0-.3c0,0,.2,0,.3,0l12.8,12.8c0,0,0,.2,0,.3h0s0,0-.1,0Z"/>
        <path class="cls-1" d="M16,13.6c0,0,0,0-.1,0L3.9,1.6c0,0,0-.2,0-.3h0c0,0,.2,0,.3,0l12,12c0,0,0,.2,0,.3h0s0,0-.1,0ZM16.2,11.3c0,0,0,0-.1,0L6.4,1.6c0,0,0-.2,0-.3h0c0,0,.2,0,.3,0l9.7,9.7c0,0,0,.2,0,.3h0s0,0-.1,0ZM16.5,8.9c0,0,0,0-.1,0L9,1.6c0,0,0-.2,0-.3h0s.2,0,.3,0l7.3,7.3c0,0,0,.2,0,.3,0,0,0,0,0,0,0,0,0,0-.1,0ZM16.7,6.6c0,0,0,0-.1,0L11.6,1.6c0,0,0-.2,0-.3h0c0,0,.2,0,.3,0l5,5c0,0,0,.2,0,.3,0,0,0,0-.1,0ZM17,4.3c0,0,0,0-.1,0l-2.7-2.7c0,0,0-.2,0-.3h0c0,0,.2,0,.3,0l2.7,2.7c0,0,0,.2,0,.3,0,0,0,0-.1,0ZM15.2,17.9c0,0,0,0-.1,0L3.1,5.9c0,0,0-.2,0-.3,0,0,.2,0,.3,0l12,12c0,0,0,.2,0,.3h0s0,0-.1,0ZM12.6,17.9c0,0,0,0-.1,0L3.4,8.7c0,0,0-.2,0-.3,0,0,.2,0,.3,0l9.1,9.1c0,0,0,.2,0,.3h0s0,0-.1,0ZM10.1,17.9c0,0,0,0-.1,0l-6.3-6.3c0,0,0-.2,0-.3,0,0,0,0,0,0,0,0,.2,0,.3,0l6.3,6.3c0,0,0,.2,0,.3,0,0,0,0-.1,0ZM7.5,17.9c0,0,0,0-.1,0l-3.4-3.4c0,0,0-.2,0-.3,0,0,0,0,0,0,0,0,.2,0,.3,0l3.4,3.4c0,0,0,.2,0,.3,0,0,0,0,0,0,0,0,0,0-.1,0Z"/>
        <path class="cls-1" d="M4.3,16.2c0,0,0,0-.1,0,0,0,0-.2,0-.3,0,0,0,0,0,0L16.9,3.1c0,0,.2,0,.3,0,0,0,0,0,0,0,0,0,0,.2,0,.3l-12.8,12.8s0,0-.1,0ZM4.1,13.9c0,0,0,0-.1,0,0,0,0-.2,0-.3,0,0,0,0,0,0L16.2,1.3c0,0,.2,0,.3,0,0,0,0,0,0,0,0,0,0,.2,0,.3h0S4.2,13.8,4.2,13.8c0,0,0,0-.1,0ZM3.8,11.6c0,0,0,0-.1,0,0,0,0-.2,0-.3,0,0,0,0,0,0L13.6,1.3c0,0,.2,0,.3,0,0,0,0,0,0,0,0,0,0,.2,0,.3h0S3.9,11.5,3.9,11.5c0,0,0,0-.1,0ZM3.5,9.3c0,0,0,0-.1,0,0,0,0-.2,0-.3L11.1,1.3c0,0,.2,0,.3,0,0,0,0,.2,0,.3h0s-7.7,7.7-7.7,7.7c0,0,0,0-.1,0ZM3.3,6.9c0,0,0,0-.1,0,0,0,0-.2,0-.3L8.5,1.3c0,0,.2,0,.3,0,0,0,0,.2,0,.3h0S3.4,6.9,3.4,6.9c0,0,0,0-.1,0ZM3.1,4.6c0,0,0,0-.1,0,0,0,0-.2,0-.3l3-3c0,0,.2,0,.3,0,0,0,0,.2,0,.3h0s-3,3-3,3c0,0,0,0-.1,0ZM5.1,17.9c0,0,0,0-.1,0,0,0,0-.2,0-.3,0,0,0,0,0,0l11.6-11.6c0,0,.2,0,.3,0,0,0,0,0,0,0,0,0,0,.2,0,.3l-11.6,11.6s0,0-.1,0ZM7.7,17.9c0,0,0,0-.1,0,0,0,0-.2,0-.3,0,0,0,0,0,0l8.8-8.8c0,0,.2,0,.3,0,0,0,0,0,0,0,0,0,0,.2,0,.3,0,0,0,0,0,0l-8.8,8.8s0,0-.1,0ZM10.3,17.9c0,0,0,0-.1,0,0,0,0-.2,0-.3h0s5.9-5.9,5.9-5.9c0,0,.2,0,.3,0h0c0,0,0,.2,0,.3h0s-5.9,5.9-5.9,5.9c0,0,0,0-.1,0ZM12.8,17.9c0,0,0,0-.1,0,0,0,0-.2,0-.3h0s3-3,3-3c0,0,.2,0,.3,0s0,.2,0,.3l-3,3s0,0-.1,0Z"/>
        <path class="cls-1" d="M14.8,19.6H5.2c-.5,0-.9-.4-.9-.9L2.6,1.5c0-.1,0-.2.2-.2.1,0,.2,0,.2.2l1.8,17.3s0,0,0,0c0,.3.2.5.5.5h9.6c.3,0,.5-.2.5-.5s0,0,0,0l1.8-17.3c0-.1.1-.2.2-.2.1,0,.2.1.2.2h0s-1.8,17.3-1.8,17.3c0,.5-.4.9-.9.9Z"/>
      </g>
    </g>
  </g>
</svg>