<?xml version="1.0" encoding="UTF-8"?>
<svg xmlns="http://www.w3.org/2000/svg" version="1.1" viewBox="0 0 20 20">
  <defs>
    <style>
      .cls-1 {
        fill: #ff2e91;
        fill-rule: evenodd;
        isolation: isolate;
      }

      .cls-2 {
        fill: #fff;
      }

      .cls-3 {
        fill: #21b0f1;
      }
    </style>
  </defs>
  <!-- Generator: Adobe Illustrator 28.6.0, SVG Export Plug-In . SVG Version: 1.2.0 Build 709)  -->
  <g>
    <g id="_图层_1" data-name="图层_1">
      <g id="_图层_1-2" data-name="_图层_1">
        <g>
          <path class="cls-1" d="M11.4,5.3h1.3c-.1,3-.1,6,0,9h-1.3c.1-3,.1-6,0-9Z"/>
          <path class="cls-1" d="M19.9,5.3v.8c-1.2,0-2.4-.2-3.6-.2v3.3c1.1,0,2.2,0,3.4-.1v.8c-1.1,0-2.2-.1-3.4-.1,0,1.5,0,3,.1,4.4h-1.3c.2-3,.2-6,0-9h4.9-.1Z"/>
        </g>
      </g>
      <circle class="cls-3" cx="4.6" cy="9.7" r="4.4"/>
      <rect class="cls-2" x="4.3" y="6.5" width=".7" height="6.4" rx=".3" ry=".3"/>
      <rect class="cls-2" x="4.3" y="6.5" width=".7" height="6.4" rx=".3" ry=".3" transform="translate(14.3 5.1) rotate(90)"/>
    </g>
  </g>
</svg>