<?xml version="1.0" encoding="UTF-8"?>
<svg xmlns="http://www.w3.org/2000/svg" version="1.1" viewBox="0 0 20 20">
  <defs>
    <style>
      .cls-1 {
        fill: #fc6100;
      }
    </style>
  </defs>
  <!-- Generator: Adobe Illustrator 28.6.0, SVG Export Plug-In . SVG Version: 1.2.0 Build 709)  -->
  <g>
    <g id="_图层_1" data-name="图层_1">
      <g id="_图层_1-2" data-name="_图层_1">
        <g id="_图层_1-2">
          <path class="cls-1" d="M19.6,4.2c-.4,0-.8,0-1,.4l-.4,1C16.6,2.7,13.5.8,10,.8S2.2,3.6,1.2,7.7c-.1.4.1.8.5.9.4.1.8-.1.9-.5.9-3.4,4-5.7,7.4-5.7s5.5,1.6,6.8,4.2l-1.2-.5c-.4-.2-.8,0-1,.4-.1.4,0,.8.4,1l2.9,1.1h.2c.1,0,0,0,0,0h.5c0-.1,0-.2.1-.3h0l1.1-2.9c.1-.4,0-.8-.4-1h0v-.2h.2ZM18.5,11.5c-.4-.1-.8.1-.9.5-.9,3.4-4,5.7-7.4,5.7s-5.5-1.6-6.8-4.2l1.2.5h.3c.3,0,.6-.2.7-.5,0-.4,0-.8-.4-1l-2.9-1.1h-.3s-.1,0-.2.1h0s-.1.1-.1.2h0L.1,14.8c-.1.4,0,.8.4,1h.3c.3,0,.6-.2.7-.5l.4-1c1.5,3,4.7,4.9,8.2,4.9s7.9-2.9,8.9-6.8c.1-.4-.1-.8-.5-.9h0Z"/>
        </g>
      </g>
    </g>
  </g>
</svg>