<?xml version="1.0" encoding="UTF-8"?>
<!DOCTYPE svg PUBLIC "-//W3C//DTD SVG 1.1//EN" "http://www.w3.org/Graphics/SVG/1.1/DTD/svg11.dtd">
<svg xmlns="http://www.w3.org/2000/svg" version="1.1" width="94px" height="94px" style="shape-rendering:geometricPrecision; text-rendering:geometricPrecision; image-rendering:optimizeQuality; fill-rule:evenodd; clip-rule:evenodd" xmlns:xlink="http://www.w3.org/1999/xlink">
<g><path style="opacity:0.953" fill="#1833e6" d="M 46.5,5.5 C 46.5,7.5 46.5,9.5 46.5,11.5C 46.5,13.1667 46.5,14.8333 46.5,16.5C 46.5,18.1667 46.5,19.8333 46.5,21.5C 46.5,23.1667 46.5,24.8333 46.5,26.5C 46.5,28.1667 46.5,29.8333 46.5,31.5C 46.5,33.1667 46.5,34.8333 46.5,36.5C 32.8333,36.5 19.1667,36.5 5.5,36.5C 5.5,26.1667 5.5,15.8333 5.5,5.5C 19.1667,5.5 32.8333,5.5 46.5,5.5 Z"/></g>
<g><path style="opacity:1" fill="#e05c7f" d="M 46.5,5.5 C 48.0075,7.18147 49.0075,9.18147 49.5,11.5C 48.5,11.5 47.5,11.5 46.5,11.5C 46.5,9.5 46.5,7.5 46.5,5.5 Z"/></g>
<g><path style="opacity:1" fill="#ebf0f8" d="M 10.5,10.5 C 12.337,10.6395 12.6704,11.3061 11.5,12.5C 10.7025,12.0431 10.3691,11.3764 10.5,10.5 Z"/></g>
<g><path style="opacity:1" fill="#d6d7f6" d="M 20.5,9.5 C 22.4646,9.94835 22.7979,10.9483 21.5,12.5C 20.6143,11.675 20.281,10.675 20.5,9.5 Z"/></g>
<g><path style="opacity:1" fill="#dadcf7" d="M 42.5,10.5 C 41.8333,13.1667 41.1667,13.1667 40.5,10.5C 41.1667,9.16667 41.8333,9.16667 42.5,10.5 Z"/></g>
<g><path style="opacity:1" fill="#e3e9f7" d="M 30.5,10.5 C 32.337,10.6395 32.6704,11.3061 31.5,12.5C 30.7025,12.0431 30.3691,11.3764 30.5,10.5 Z"/></g>
<g><path style="opacity:1" fill="#f0f2f9" d="M 15.5,15.5 C 17.337,15.6395 17.6704,16.3061 16.5,17.5C 15.7025,17.0431 15.3691,16.3764 15.5,15.5 Z"/></g>
<g><path style="opacity:1" fill="#f7f7f8" d="M 27.5,17.5 C 26.8333,17.5 26.1667,17.5 25.5,17.5C 26.1667,14.8333 26.8333,14.8333 27.5,17.5 Z"/></g>
<g><path style="opacity:0.732" fill="#e6e9f2" d="M 46.5,11.5 C 47.5,11.5 48.5,11.5 49.5,11.5C 50.3909,12.2613 51.0576,13.2613 51.5,14.5C 58.4684,15.497 65.4684,15.8303 72.5,15.5C 72.8333,17.5 73.1667,19.5 73.5,21.5C 67.1318,21.1703 60.7985,21.5037 54.5,22.5C 55.1667,23.5 55.8333,24.5 56.5,25.5C 53.2317,26.487 49.8984,26.8204 46.5,26.5C 46.5,24.8333 46.5,23.1667 46.5,21.5C 48.924,21.8076 51.2573,21.4742 53.5,20.5C 52.7542,19.2638 52.4208,17.9305 52.5,16.5C 50.5,16.5 48.5,16.5 46.5,16.5C 46.5,14.8333 46.5,13.1667 46.5,11.5 Z"/></g>
<g><path style="opacity:1" fill="#1f37e6" d="M 40.5,10.5 C 41.1667,13.1667 41.8333,13.1667 42.5,10.5C 43.9723,12.1175 44.639,14.1175 44.5,16.5C 43.1667,19.8333 43.1667,23.1667 44.5,26.5C 44.639,28.8825 43.9723,30.8825 42.5,32.5C 40.8825,33.9723 38.8825,34.639 36.5,34.5C 33.1667,33.1667 29.8333,33.1667 26.5,34.5C 24.1175,34.639 22.1175,33.9723 20.5,32.5C 21.8333,32.5 22.5,31.8333 22.5,30.5C 23.2216,30.9175 23.7216,31.5842 24,32.5C 24.8333,31 26,29.8333 27.5,29C 26.5842,28.7216 25.9175,28.2216 25.5,27.5C 24.5655,26.4324 24.2322,25.099 24.5,23.5C 22.901,23.7678 21.5676,23.4345 20.5,22.5C 21.8333,22.5 22.5,21.8333 22.5,20.5C 23.2216,20.9175 23.7216,21.5842 24,22.5C 24.5,20.6667 25.6667,19.5 27.5,19C 26.5842,18.7216 25.9175,18.2216 25.5,17.5C 26.1667,17.5 26.8333,17.5 27.5,17.5C 28.7621,14.9292 30.0955,14.9292 31.5,17.5C 32.9045,14.9292 34.2379,14.9292 35.5,17.5C 36.8333,17.5 37.5,16.8333 37.5,15.5C 38.2216,15.9175 38.7216,16.5842 39,17.5C 39.1667,17 39.3333,16.5 39.5,16C 38.1153,14.4029 37.4486,12.5695 37.5,10.5C 38.5,10.5 39.5,10.5 40.5,10.5 Z"/></g>
<g><path style="opacity:1" fill="#eaeef8" d="M 37.5,15.5 C 37.5,16.8333 36.8333,17.5 35.5,17.5C 35.5,16.1667 36.1667,15.5 37.5,15.5 Z"/></g>
<g><path style="opacity:1" fill="#fa1f4c" d="M 46.5,16.5 C 48.5,16.5 50.5,16.5 52.5,16.5C 52.4208,17.9305 52.7542,19.2638 53.5,20.5C 51.2573,21.4742 48.924,21.8076 46.5,21.5C 46.5,19.8333 46.5,18.1667 46.5,16.5 Z"/></g>
<g><path style="opacity:1" fill="#f4f5f9" d="M 10.5,20.5 C 12.337,20.6395 12.6704,21.3061 11.5,22.5C 10.7025,22.0431 10.3691,21.3764 10.5,20.5 Z"/></g>
<g><path style="opacity:1" fill="#fbfaf9" d="M 22.5,20.5 C 22.5,21.8333 21.8333,22.5 20.5,22.5C 20.5,21.1667 21.1667,20.5 22.5,20.5 Z"/></g>
<g><path style="opacity:1" fill="#f9f9f9" d="M 30.5,20.5 C 32.337,20.6395 32.6704,21.3061 31.5,22.5C 30.7025,22.0431 30.3691,21.3764 30.5,20.5 Z"/></g>
<g><path style="opacity:1" fill="#faf9f9" d="M 40.5,20.5 C 42.337,20.6395 42.6704,21.3061 41.5,22.5C 40.7025,22.0431 40.3691,21.3764 40.5,20.5 Z"/></g>
<g><path style="opacity:0.936" fill="#e71249" d="M 73.5,21.5 C 74.1667,23.1667 74.8333,24.8333 75.5,26.5C 69.5,26.5 63.5,26.5 57.5,26.5C 57.4208,27.9305 57.7542,29.2638 58.5,30.5C 54.5546,31.4909 50.5546,31.8242 46.5,31.5C 46.5,29.8333 46.5,28.1667 46.5,26.5C 49.8984,26.8204 53.2317,26.487 56.5,25.5C 55.8333,24.5 55.1667,23.5 54.5,22.5C 60.7985,21.5037 67.1318,21.1703 73.5,21.5 Z"/></g>
<g><path style="opacity:1" fill="#f8f9f9" d="M 15.5,25.5 C 17.337,25.6395 17.6704,26.3061 16.5,27.5C 15.7025,27.0431 15.3691,26.3764 15.5,25.5 Z"/></g>
<g><path style="opacity:1" fill="#fbfaf9" d="M 25.5,27.5 C 25.6395,25.663 26.3061,25.3296 27.5,26.5C 27.0431,27.2975 26.3764,27.6309 25.5,27.5 Z"/></g>
<g><path style="opacity:1" fill="#f5f7f8" d="M 35.5,25.5 C 37.337,25.6395 37.6704,26.3061 36.5,27.5C 35.7025,27.0431 35.3691,26.3764 35.5,25.5 Z"/></g>
<g><path style="opacity:1" fill="#f9f9f9" d="M 22.5,30.5 C 22.5,31.8333 21.8333,32.5 20.5,32.5C 20.5,31.1667 21.1667,30.5 22.5,30.5 Z"/></g>
<g><path style="opacity:1" fill="#e5ebf7" d="M 10.5,30.5 C 12.337,30.6395 12.6704,31.3061 11.5,32.5C 10.7025,32.0431 10.3691,31.3764 10.5,30.5 Z"/></g>
<g><path style="opacity:1" fill="#f5f7f9" d="M 30.5,30.5 C 32.337,30.6395 32.6704,31.3061 31.5,32.5C 30.7025,32.0431 30.3691,31.3764 30.5,30.5 Z"/></g>
<g><path style="opacity:1" fill="#f7f7f9" d="M 42.5,32.5 C 40.663,32.3605 40.3296,31.6939 41.5,30.5C 42.2975,30.9569 42.6309,31.6236 42.5,32.5 Z"/></g>
<g><path style="opacity:1" fill="#ededf4" d="M 75.5,26.5 C 75.5,27.8333 75.5,29.1667 75.5,30.5C 70.3187,31.1665 64.9853,31.8332 59.5,32.5C 60.6302,33.6223 61.2969,34.9557 61.5,36.5C 56.5,36.5 51.5,36.5 46.5,36.5C 46.5,34.8333 46.5,33.1667 46.5,31.5C 50.5546,31.8242 54.5546,31.4909 58.5,30.5C 57.7542,29.2638 57.4208,27.9305 57.5,26.5C 63.5,26.5 69.5,26.5 75.5,26.5 Z"/></g>
<g><path style="opacity:1" fill="#df0f40" d="M 75.5,30.5 C 76.4582,32.3024 77.1249,34.3024 77.5,36.5C 72.1667,36.5 66.8333,36.5 61.5,36.5C 61.2969,34.9557 60.6302,33.6223 59.5,32.5C 64.9853,31.8332 70.3187,31.1665 75.5,30.5 Z"/></g>
<g><path style="opacity:1" fill="#fc0b47" d="M 5.5,36.5 C 19.1667,36.5 32.8333,36.5 46.5,36.5C 51.5,36.5 56.5,36.5 61.5,36.5C 62.6005,37.6049 63.2671,38.9382 63.5,40.5C 44.3405,41.497 25.0072,41.8303 5.5,41.5C 5.5,39.8333 5.5,38.1667 5.5,36.5 Z"/></g>
<g><path style="opacity:0.981" fill="#dff4fa" d="M 61.5,36.5 C 66.8333,36.5 72.1667,36.5 77.5,36.5C 77.8333,37.8333 78.1667,39.1667 78.5,40.5C 73.5,40.5 68.5,40.5 63.5,40.5C 63.2671,38.9382 62.6005,37.6049 61.5,36.5 Z"/></g>
<g><path style="opacity:0.997" fill="#f8f1f4" d="M 63.5,40.5 C 68.5,40.5 73.5,40.5 78.5,40.5C 78.5,40.8333 78.5,41.1667 78.5,41.5C 73.7863,41.1734 69.1196,41.5067 64.5,42.5C 65.1667,43.5 65.8333,44.5 66.5,45.5C 46.1776,46.4996 25.8443,46.833 5.5,46.5C 5.5,44.8333 5.5,43.1667 5.5,41.5C 25.0072,41.8303 44.3405,41.497 63.5,40.5 Z"/></g>
<g><path style="opacity:0.939" fill="#def1f8" d="M 80.5,46.5 C 80.5,48.1667 80.5,49.8333 80.5,51.5C 76.8333,51.5 73.1667,51.5 69.5,51.5C 69.5,50.8333 69.1667,50.5 68.5,50.5C 68.4606,49.4168 68.1272,48.4168 67.5,47.5C 71.7828,46.5078 76.1161,46.1744 80.5,46.5 Z"/></g>
<g><path style="opacity:0.997" fill="#fc0a4a" d="M 78.5,41.5 C 79.1667,43.1667 79.8333,44.8333 80.5,46.5C 76.1161,46.1744 71.7828,46.5078 67.5,47.5C 68.1272,48.4168 68.4606,49.4168 68.5,50.5C 47.6733,51.4973 26.6733,51.8306 5.5,51.5C 5.5,49.8333 5.5,48.1667 5.5,46.5C 25.8443,46.833 46.1776,46.4996 66.5,45.5C 65.8333,44.5 65.1667,43.5 64.5,42.5C 69.1196,41.5067 73.7863,41.1734 78.5,41.5 Z"/></g>
<g><path style="opacity:0.997" fill="#fad7e3" d="M 68.5,50.5 C 69.1667,50.5 69.5,50.8333 69.5,51.5C 69.5,51.8333 69.5,52.1667 69.5,52.5C 48.1667,52.5 26.8333,52.5 5.5,52.5C 5.5,52.1667 5.5,51.8333 5.5,51.5C 26.6733,51.8306 47.6733,51.4973 68.5,50.5 Z"/></g>
<g><path style="opacity:0.997" fill="#f8f7fa" d="M 5.5,52.5 C 26.8333,52.5 48.1667,52.5 69.5,52.5C 70.6005,53.6049 71.2671,54.9382 71.5,56.5C 49.5,56.5 27.5,56.5 5.5,56.5C 5.5,55.1667 5.5,53.8333 5.5,52.5 Z"/></g>
<g><path style="opacity:1" fill="#de1142" d="M 69.5,51.5 C 73.1667,51.5 76.8333,51.5 80.5,51.5C 81.5375,52.9303 82.2041,54.597 82.5,56.5C 78.8333,56.5 75.1667,56.5 71.5,56.5C 71.2671,54.9382 70.6005,53.6049 69.5,52.5C 69.5,52.1667 69.5,51.8333 69.5,51.5 Z"/></g>
<g><path style="opacity:0.898" fill="#def0f7" d="M 71.5,56.5 C 75.1667,56.5 78.8333,56.5 82.5,56.5C 83.3007,58.0418 83.634,59.7085 83.5,61.5C 80.5,61.5 77.5,61.5 74.5,61.5C 74.5,60.8333 74.1667,60.5 73.5,60.5C 73.2671,58.9382 72.6005,57.6049 71.5,56.5 Z"/></g>
<g><path style="opacity:0.998" fill="#fe1047" d="M 5.5,56.5 C 27.5,56.5 49.5,56.5 71.5,56.5C 72.6005,57.6049 73.2671,58.9382 73.5,60.5C 51.0061,61.4975 28.3395,61.8308 5.5,61.5C 5.5,59.8333 5.5,58.1667 5.5,56.5 Z"/></g>
<g><path style="opacity:0.997" fill="#f9cce0" d="M 73.5,60.5 C 74.1667,60.5 74.5,60.8333 74.5,61.5C 74.5,61.8333 74.5,62.1667 74.5,62.5C 51.5,62.5 28.5,62.5 5.5,62.5C 5.5,62.1667 5.5,61.8333 5.5,61.5C 28.3395,61.8308 51.0061,61.4975 73.5,60.5 Z"/></g>
<g><path style="opacity:0.881" fill="#df1442" d="M 74.5,61.5 C 77.5,61.5 80.5,61.5 83.5,61.5C 84.4511,62.9187 84.7845,64.5853 84.5,66.5C 81.8333,66.5 79.1667,66.5 76.5,66.5C 76.2671,64.9382 75.6005,63.6049 74.5,62.5C 74.5,62.1667 74.5,61.8333 74.5,61.5 Z"/></g>
<g><path style="opacity:0.799" fill="#f7f6f6" d="M 5.5,62.5 C 28.5,62.5 51.5,62.5 74.5,62.5C 75.6005,63.6049 76.2671,64.9382 76.5,66.5C 69.6457,66.176 62.979,66.5093 56.5,67.5C 41.5,67.5 26.5,67.5 11.5,67.5C 9.73535,66.5386 7.73535,66.2053 5.5,66.5C 5.5,65.1667 5.5,63.8333 5.5,62.5 Z"/></g>
<g><path style="opacity:0.916" fill="#01102f" d="M 5.5,66.5 C 7.73535,66.2053 9.73535,66.5386 11.5,67.5C 11.5,74.1667 11.5,80.8333 11.5,87.5C 9.5,87.5 7.5,87.5 5.5,87.5C 5.5,80.5 5.5,73.5 5.5,66.5 Z"/></g>
<g><path style="opacity:0.938" fill="#06112c" d="M 56.5,67.5 C 62.979,66.5093 69.6457,66.176 76.5,66.5C 75.1667,68.1667 73.8333,69.8333 72.5,71.5C 70.5,73.1667 68.5,74.8333 66.5,76.5C 63.1667,73.5 59.8333,70.5 56.5,67.5 Z"/></g>
<g><path style="opacity:0.936" fill="#e1f1f8" d="M 76.5,66.5 C 79.1667,66.5 81.8333,66.5 84.5,66.5C 85.3092,68.0276 85.9759,69.6943 86.5,71.5C 81.8333,71.5 77.1667,71.5 72.5,71.5C 73.8333,69.8333 75.1667,68.1667 76.5,66.5 Z"/></g>
<g><path style="opacity:0.781" fill="#df104d" d="M 72.5,71.5 C 77.1667,71.5 81.8333,71.5 86.5,71.5C 87.4614,73.2646 87.7947,75.2646 87.5,77.5C 80.3134,77.8245 73.3134,77.4912 66.5,76.5C 68.5,74.8333 70.5,73.1667 72.5,71.5 Z"/></g>
</svg>
